<svg width="59" height="68" viewBox="0 0 59 68" fill="none" xmlns="http://www.w3.org/2000/svg">
<path fill-rule="evenodd" clip-rule="evenodd" d="M16.5043 65.464C16.3781 65.4175 16.3123 65.2744 16.3574 65.1443L19.5229 56.0196C19.568 55.8895 19.707 55.8217 19.8332 55.8682L21.2523 56.3906C21.3786 56.4371 21.4444 56.5802 21.3992 56.7103L18.2337 65.8351C18.1886 65.9651 18.0497 66.0329 17.9234 65.9864L16.5043 65.464ZM19.1032 66.4065C18.9728 66.3741 18.9072 66.2297 18.9523 66.0996L19.4595 64.6377C19.5046 64.5077 19.6449 64.4445 19.779 64.4466C19.9045 64.4485 20.0356 64.4184 20.1724 64.3564C20.3473 64.2559 20.4741 64.1067 20.5527 63.9089L22.0079 59.7142C22.0713 59.5314 22.0577 59.3255 21.9671 59.0963C21.9099 58.9717 21.831 58.8696 21.7305 58.79C21.6275 58.7084 21.5635 58.5728 21.6072 58.4467L22.1178 56.9748C22.1629 56.8448 22.3025 56.7761 22.4252 56.8319C23.2746 57.2188 23.7877 57.9146 23.9643 58.9195C24.0599 59.4803 24.0332 59.9754 23.8842 60.4049L22.429 64.5997C22.0676 65.6415 21.3501 66.2534 20.2765 66.4353C19.8452 66.5033 19.4541 66.4937 19.1032 66.4065Z" fill="white"/>
<path fill-rule="evenodd" clip-rule="evenodd" d="M13.0059 51.9299C12.8922 51.8567 12.7424 51.8922 12.6713 52.0093L7.68275 60.2244C7.61165 60.3415 7.64615 60.4958 7.75982 60.569L11.7091 63.1139C11.8228 63.1871 11.9726 63.1516 12.0437 63.0345L12.8429 61.7184C12.914 61.6013 12.8795 61.447 12.7658 61.3737L10.5058 59.9174C10.3921 59.8441 10.3576 59.6898 10.4287 59.5727L11.1904 58.3183C11.2616 58.2012 11.4113 58.1657 11.525 58.2389L12.6589 58.9696C12.7725 59.0428 12.9223 59.0073 12.9934 58.8902L13.7926 57.5741C13.8637 57.457 13.8292 57.3027 13.7156 57.2294L12.5817 56.4988C12.468 56.4255 12.4335 56.2712 12.5046 56.1541L13.3113 54.8257C13.3825 54.7086 13.5322 54.673 13.6459 54.7463L15.9059 56.2026C16.0196 56.2759 16.1694 56.2403 16.2405 56.1232L17.0322 54.8195C17.1033 54.7024 17.0688 54.5481 16.9551 54.4748L13.0059 51.9299Z" fill="white"/>
<path fill-rule="evenodd" clip-rule="evenodd" d="M0.0664108 53.0993C-0.0257298 52.999 -0.0214672 52.8407 0.0759315 52.7458L6.90922 46.0866C7.00662 45.9917 7.16027 45.9961 7.25241 46.0964L8.28806 47.2242C8.3802 47.3245 8.37594 47.4828 8.27854 47.5777L1.44525 54.2369C1.34786 54.3318 1.1942 54.3274 1.10206 54.2271L0.0664108 53.0993ZM4.83614 52.2349C4.77714 52.1707 4.77987 52.0693 4.84224 52.0085L5.87907 50.9981C5.95278 50.9263 6.06905 50.9296 6.13878 51.0055C6.55314 51.4568 6.99652 51.5724 7.46894 51.3525C7.58381 51.294 7.68915 51.218 7.78496 51.1247C8.14768 50.7712 8.22878 50.3582 8.02825 49.8856C7.96572 49.7328 7.86972 49.5859 7.74023 49.4449C7.6705 49.369 7.67373 49.2492 7.74743 49.1774L8.80296 48.1487C8.90036 48.0538 9.05401 48.0582 9.14616 48.1585L9.19297 48.2095C10.0274 49.1464 10.3048 50.1052 10.0252 51.0857C9.89275 51.5488 9.64176 51.9603 9.27219 52.3205C8.65919 52.9064 8.0095 53.2006 7.32313 53.2033C7.15821 53.2039 7.02091 53.3546 7.01738 53.5244C7.00764 53.9928 6.8087 54.4912 6.42054 55.0193C6.35858 55.0931 6.30004 55.1635 6.24491 55.2306L4.35839 57.3806C4.26347 57.4888 4.09921 57.4907 4.00193 57.3848L3.07322 56.3735C2.98651 56.2791 2.98447 56.132 3.06852 56.035L4.60148 54.2671C5.09719 53.6772 5.28705 53.1849 5.17106 52.7903C5.10927 52.61 4.99763 52.4249 4.83614 52.2349Z" fill="white"/>
<path fill-rule="evenodd" clip-rule="evenodd" d="M29.4615 57.7965C29.3283 57.8124 29.2329 57.9366 29.2483 58.0738L30.3008 67.4296C30.3162 67.5668 30.4367 67.6652 30.5699 67.6493L32.0169 67.4765C32.1501 67.4606 32.2455 67.3365 32.2301 67.1993L31.8484 63.8058C31.8329 63.6686 31.9284 63.5445 32.0616 63.5286L33.3444 63.3755C33.4776 63.3596 33.573 63.2355 33.5576 63.0983L33.3899 61.6076C33.3745 61.4704 33.254 61.3721 33.1208 61.388L31.838 61.5411C31.7048 61.557 31.5843 61.4587 31.5689 61.3215L31.3996 59.8168C31.3842 59.6796 31.4796 59.5555 31.6128 59.5396L34.1819 59.2329C34.315 59.217 34.4105 59.0929 34.3951 58.9557L34.229 57.4792C34.2135 57.342 34.093 57.2437 33.9599 57.2596L29.4615 57.7965Z" fill="white"/>
<path fill-rule="evenodd" clip-rule="evenodd" d="M40.2289 65.9839C40.1015 66.0267 39.9645 65.9549 39.9229 65.8236L37.0873 56.8546C37.0458 56.7233 37.1155 56.5821 37.243 56.5394L38.6281 56.0747C38.7556 56.0319 38.8926 56.1037 38.9341 56.235L41.7697 65.204C41.8112 65.3353 41.7415 65.4765 41.614 65.5192L40.2289 65.9839Z" fill="white"/>
<path fill-rule="evenodd" clip-rule="evenodd" d="M43.3 53.9555C43.2195 53.8817 43.1014 53.8715 43.01 53.9303L41.7563 54.7378C41.6192 54.8261 41.6026 55.0252 41.7231 55.1362L48.8289 61.6842C48.9095 61.7584 49.0279 61.7689 49.1195 61.7099L49.3657 61.5513C49.4542 61.4943 49.4974 61.3855 49.4731 61.281L48.9968 59.2327C48.9853 59.1829 48.9592 59.138 48.9221 59.104L43.3 53.9555ZM45.2801 52.4683C45.1889 52.527 45.1461 52.6406 45.1749 52.7473L45.823 55.1478C45.8355 55.1942 45.8608 55.2359 45.8958 55.2679L48.1971 57.3704C48.2277 57.3984 48.2726 57.4022 48.3073 57.3799C48.3419 57.3576 48.3579 57.3137 48.3472 57.2732C47.5668 54.3402 47.0832 52.5216 46.8964 51.8175C46.8527 51.6528 46.6631 51.5775 46.5226 51.668L45.2801 52.4683Z" fill="white"/>
<path fill-rule="evenodd" clip-rule="evenodd" d="M55.7175 56.3342C55.6256 56.4347 55.4719 56.4394 55.3743 56.3447L48.7101 49.8759C48.6125 49.7812 48.6079 49.6229 48.6999 49.5224L51.8054 46.1272C51.8974 46.0267 52.051 46.022 52.1486 46.1167L53.1988 47.1361C53.2963 47.2308 53.3009 47.3891 53.209 47.4896L51.4353 49.4286C51.3434 49.5291 51.348 49.6874 51.4455 49.7821L52.5158 50.8209C52.6133 50.9156 52.767 50.9109 52.8589 50.8104L53.7446 49.8422C53.8365 49.7417 53.9902 49.737 54.0877 49.8317L55.1479 50.8608C55.2455 50.9555 55.2501 51.1138 55.1581 51.2143L54.2725 52.1825C54.1805 52.283 54.1851 52.4413 54.2827 52.536L55.2928 53.5164C55.3903 53.6112 55.544 53.6065 55.6359 53.5059L57.4095 51.567C57.5015 51.4664 57.6551 51.4617 57.7527 51.5565L58.8129 52.5855C58.9105 52.6803 58.915 52.8385 58.8231 52.9391L55.7175 56.3342Z" fill="white"/>
<path d="M10.2114 40.8424C10.2114 40.6529 10.365 40.4993 10.5546 40.4993C10.7441 40.4993 10.8977 40.6529 10.8977 40.8424V44.6452C10.8977 44.8347 10.7441 44.9883 10.5546 44.9883C10.365 44.9883 10.2114 44.8347 10.2114 44.6452V40.8424Z" fill="url(#paint0_linear)"/>
<path d="M14.1574 37.3736C14.1574 37.1841 14.3111 37.0304 14.5006 37.0304C14.6902 37.0304 14.8438 37.1841 14.8438 37.3736V41.1763C14.8438 41.3659 14.6902 41.5195 14.5006 41.5195C14.3111 41.5195 14.1574 41.3659 14.1574 41.1763V37.3736Z" fill="url(#paint1_linear)"/>
<path d="M20.8495 37.5777C20.8495 37.3881 21.0032 37.2345 21.1927 37.2345C21.3823 37.2345 21.5359 37.3881 21.5359 37.5777V41.3804C21.5359 41.5699 21.3823 41.7236 21.1927 41.7236C21.0032 41.7236 20.8495 41.5699 20.8495 41.3804V37.5777Z" fill="url(#paint2_linear)"/>
<path d="M27.9159 41.7817C27.9159 41.5922 28.0696 41.4385 28.2591 41.4385C28.4487 41.4385 28.6023 41.5922 28.6023 41.7817V45.5844C28.6023 45.774 28.4487 45.9276 28.2591 45.9276C28.0696 45.9276 27.9159 45.774 27.9159 45.5844V41.7817Z" fill="url(#paint3_linear)"/>
<path d="M42.5828 36.2854C42.5828 36.0958 42.7364 35.9422 42.926 35.9422C43.1155 35.9422 43.2692 36.0958 43.2692 36.2854V40.0881C43.2692 40.2776 43.1155 40.4313 42.926 40.4313C42.7364 40.4313 42.5828 40.2776 42.5828 40.0881V36.2854Z" fill="url(#paint4_linear)"/>
<path d="M46.071 34.3809C46.071 34.1913 46.2247 34.0377 46.4142 34.0377C46.6038 34.0377 46.7574 34.1913 46.7574 34.3809V38.1836C46.7574 38.3731 46.6038 38.5268 46.4142 38.5268C46.2247 38.5268 46.071 38.3731 46.071 38.1836V34.3809Z" fill="url(#paint5_linear)"/>
<path d="M48.8166 40.9104C48.8166 40.7209 48.9703 40.5672 49.1598 40.5672C49.3493 40.5672 49.503 40.7209 49.503 40.9104V44.7131C49.503 44.9027 49.3493 45.0563 49.1598 45.0563C48.9703 45.0563 48.8166 44.9027 48.8166 44.7131V40.9104Z" fill="url(#paint6_linear)"/>
<path d="M42.6392 41.6299C42.6392 41.4562 42.78 41.3153 42.9537 41.3153C43.1274 41.3153 43.2683 41.4562 43.2683 41.6299V42.5652C43.2683 42.7389 43.1274 42.8797 42.9537 42.8797C42.78 42.8797 42.6392 42.7389 42.6392 42.5652V41.6299Z" fill="url(#paint7_linear)"/>
<path d="M31.637 47.1757C31.637 47.0019 31.7779 46.8611 31.9516 46.8611C32.1253 46.8611 32.2661 47.0019 32.2661 47.1757V48.111C32.2661 48.2847 32.1253 48.4255 31.9516 48.4255C31.7779 48.4255 31.637 48.2847 31.637 48.111V47.1757Z" fill="url(#paint8_linear)"/>
<path d="M20.8495 44.8268C20.8495 44.6531 20.9904 44.5123 21.1641 44.5123C21.3378 44.5123 21.4787 44.6531 21.4787 44.8268V45.7621C21.4787 45.9359 21.3378 46.0767 21.1641 46.0767C20.9904 46.0767 20.8495 45.9359 20.8495 45.7621V44.8268Z" fill="url(#paint9_linear)"/>
<path fill-rule="evenodd" clip-rule="evenodd" d="M9.10925 11.3056C9.10925 11.9932 9.60769 12.5625 10.2574 12.6607L10.0941 13.0345V30.0514C10.0941 30.0514 9.67472 30.1883 9.67472 30.3252V40.3172C9.67472 40.6018 9.87043 40.5941 9.9401 40.5914C9.94571 40.5911 9.95053 40.5909 9.95434 40.5909H11.0728C11.0766 40.5909 11.0814 40.5912 11.0871 40.5914C11.1558 40.5944 11.3524 40.6028 11.3524 40.3188V37.4202L21.7159 39.6217L22.5373 39.7697V43.6022C22.5373 43.876 22.8169 43.876 22.8169 43.876H24.7743C24.7743 43.876 25.0539 43.876 25.0539 43.6022V39.7697H25.6131L27.206 40.8932L32.4085 40.893L34.0014 39.7695H34.5606V43.6021C34.5606 43.8758 34.8402 43.8758 34.8402 43.8758H36.7976C36.7976 43.8758 37.0772 43.8758 37.0772 43.6021V39.7695L37.8986 39.6216L48.2621 37.42V40.3186C48.2621 40.6026 48.4587 40.5942 48.5274 40.5912C48.5331 40.591 48.5379 40.5908 48.5417 40.5908H49.6602C49.664 40.5908 49.6688 40.591 49.6744 40.5912C49.7441 40.5939 49.9398 40.6016 49.9398 40.317V30.325C49.9398 30.1881 49.5204 30.0513 49.5204 30.0513V13.0344L49.359 12.6649C50.0238 12.5803 50.5381 12.0039 50.5381 11.3054H50.1494C50.1493 11.8599 49.7646 12.322 49.2544 12.4255L49.2407 12.3942V10.7517C49.2407 10.7517 49.2407 10.4779 49.1009 10.341C48.9611 10.4779 48.9611 10.7517 48.9611 10.7517V12.3942L48.9494 12.4209C48.4444 12.3091 48.0662 11.8522 48.0662 11.3054H47.6863C47.6863 11.9875 48.1885 12.5532 48.8458 12.6581L48.6815 13.0344V30.0513C48.6815 30.0513 48.2621 30.1881 48.2621 30.325V31.0094H37.9161V29.3669C37.9161 29.0293 37.579 28.4168 37.2342 28.4168H34.6037C34.2689 28.4168 34.0014 29.0391 34.0014 29.3669V31.0094L33.1625 28.5456L31.4848 4.45533V3.08656C31.4848 2.92901 30.5061 0.34903 30.3663 0.34903L29.2482 0.349208C29.1084 0.349208 28.1297 2.92919 28.1297 3.08674V4.45551L26.452 28.5458L25.6131 31.0096V29.3671C25.6131 29.0393 25.3457 28.417 25.0109 28.417H22.3803C22.0355 28.417 21.6984 29.0295 21.6984 29.3671V31.0096H11.3524V30.3252C11.3524 30.1883 10.933 30.0514 10.933 30.0514V13.0345L10.7707 12.6628C11.4431 12.571 11.961 11.9983 11.961 11.3056H11.5811C11.5811 11.8631 11.1878 12.3273 10.6678 12.4273L10.6534 12.3944V10.7518C10.6534 10.7518 10.6534 10.4781 10.5136 10.3412C10.3738 10.4781 10.3738 10.7518 10.3738 10.7518V12.3944L10.3629 12.4191C9.86774 12.304 9.49798 11.8492 9.49794 11.3056H9.10925ZM30.7003 17.6939C30.9936 17.6939 31.2386 17.9176 31.2652 18.2098L31.8196 24.3045C31.8266 24.3815 31.8178 24.459 31.7938 24.5324L31.2671 26.1411C31.1908 26.3742 30.9733 26.5319 30.728 26.5319H28.8704C28.6244 26.5319 28.4064 26.3733 28.3307 26.1392L27.8122 24.5371C27.7875 24.4607 27.7793 24.3799 27.7881 24.3L28.4639 18.1988C28.4957 17.9114 28.7386 17.6939 29.0277 17.6939H30.7003Z" fill="url(#paint10_linear)"/>
<path d="M34.8413 55.4693V43.8657H36.8048V55.4693H34.8413Z" fill="url(#paint11_linear)"/>
<path d="M24.7747 55.4744V43.8709H22.8113V55.4744H24.7747Z" fill="url(#paint12_linear)"/>
<defs>
<linearGradient id="paint0_linear" x1="23.8051" y1="43.8913" x2="23.8051" y2="55.48" gradientUnits="userSpaceOnUse">
<stop stop-color="white"/>
<stop offset="1" stop-color="white" stop-opacity="0"/>
</linearGradient>
<linearGradient id="paint1_linear" x1="23.8051" y1="43.8913" x2="23.8051" y2="55.48" gradientUnits="userSpaceOnUse">
<stop stop-color="white"/>
<stop offset="1" stop-color="white" stop-opacity="0"/>
</linearGradient>
<linearGradient id="paint2_linear" x1="23.8051" y1="43.8913" x2="23.8051" y2="55.48" gradientUnits="userSpaceOnUse">
<stop stop-color="white"/>
<stop offset="1" stop-color="white" stop-opacity="0"/>
</linearGradient>
<linearGradient id="paint3_linear" x1="23.8051" y1="43.8913" x2="23.8051" y2="55.48" gradientUnits="userSpaceOnUse">
<stop stop-color="white"/>
<stop offset="1" stop-color="white" stop-opacity="0"/>
</linearGradient>
<linearGradient id="paint4_linear" x1="23.8051" y1="43.8913" x2="23.8051" y2="55.48" gradientUnits="userSpaceOnUse">
<stop stop-color="white"/>
<stop offset="1" stop-color="white" stop-opacity="0"/>
</linearGradient>
<linearGradient id="paint5_linear" x1="23.8051" y1="43.8913" x2="23.8051" y2="55.48" gradientUnits="userSpaceOnUse">
<stop stop-color="white"/>
<stop offset="1" stop-color="white" stop-opacity="0"/>
</linearGradient>
<linearGradient id="paint6_linear" x1="23.8051" y1="43.8913" x2="23.8051" y2="55.48" gradientUnits="userSpaceOnUse">
<stop stop-color="white"/>
<stop offset="1" stop-color="white" stop-opacity="0"/>
</linearGradient>
<linearGradient id="paint7_linear" x1="23.8051" y1="43.8913" x2="23.8051" y2="55.48" gradientUnits="userSpaceOnUse">
<stop stop-color="white"/>
<stop offset="1" stop-color="white" stop-opacity="0"/>
</linearGradient>
<linearGradient id="paint8_linear" x1="23.8051" y1="43.8913" x2="23.8051" y2="55.48" gradientUnits="userSpaceOnUse">
<stop stop-color="white"/>
<stop offset="1" stop-color="white" stop-opacity="0"/>
</linearGradient>
<linearGradient id="paint9_linear" x1="23.8051" y1="43.8913" x2="23.8051" y2="55.48" gradientUnits="userSpaceOnUse">
<stop stop-color="white"/>
<stop offset="1" stop-color="white" stop-opacity="0"/>
</linearGradient>
<linearGradient id="paint10_linear" x1="23.8051" y1="43.8913" x2="23.8051" y2="55.48" gradientUnits="userSpaceOnUse">
<stop stop-color="white"/>
<stop offset="1" stop-color="white" stop-opacity="0"/>
</linearGradient>
<linearGradient id="paint11_linear" x1="23.8051" y1="43.8913" x2="23.8051" y2="55.48" gradientUnits="userSpaceOnUse">
<stop stop-color="white"/>
<stop offset="1" stop-color="white" stop-opacity="0"/>
</linearGradient>
<linearGradient id="paint12_linear" x1="23.8051" y1="43.8913" x2="23.8051" y2="55.48" gradientUnits="userSpaceOnUse">
<stop stop-color="white"/>
<stop offset="1" stop-color="white" stop-opacity="0"/>
</linearGradient>
</defs>
</svg>
